<?xml version="1.0" encoding="UTF-8"?>
<!DOCTYPE svg PUBLIC "-//W3C//DTD SVG 1.1//EN" "http://www.w3.org/Graphics/SVG/1.1/DTD/svg11.dtd">
<!-- Creator: CorelDRAW X7 -->
<svg xmlns="http://www.w3.org/2000/svg" xml:space="preserve" width="86px" height="86px" version="1.1" style="shape-rendering:geometricPrecision; text-rendering:geometricPrecision; image-rendering:optimizeQuality; fill-rule:evenodd; clip-rule:evenodd"
viewBox="0 0 893 892"
 xmlns:xlink="http://www.w3.org/1999/xlink">
 <defs>
  <style type="text/css">
   <![CDATA[
    .str0 {stroke:#FEFEFE;stroke-width:9.38299}
    .fil0 {fill:none}
    .fil2 {fill:#8A8A8A}
    .fil1 {fill:#D5281E;fill-rule:nonzero}
   ]]>
  </style>
 </defs>
 <g id="Capa_x0020_1">
  <metadata id="CorelCorpID_0Corel-Layer"/>
  <ellipse class="fil0 str0" cx="5" cy="887"/>
  <ellipse class="fil0 str0" cx="887" cy="887"/>
  <ellipse class="fil0 str0" cx="5" cy="6"/>
  <ellipse class="fil0 str0" cx="886" cy="5"/>
  <path class="fil1" d="M335 245c2,-1 3,-2 3,-2 -1,-1 -2,-1 -2,0 0,1 -1,2 -1,2zm-8 49l0 0c0,2 5,6 5,4 1,-2 0,-5 -1,-7 -1,-1 -1,-3 -2,-4 0,-1 -1,-3 -1,-3 -2,0 -2,0 -2,2 0,1 -3,2 -3,2 -1,0 -5,3 -5,3 1,1 1,0 3,0 1,0 2,1 2,1 -1,0 -3,1 -2,2 0,1 0,2 0,2 2,-2 5,-4 6,-2zm307 428l0 0c1,-3 7,-10 8,-11 2,-2 6,-8 6,-9 1,-4 5,-6 4,-10 0,-4 2,-9 2,-9 -1,-6 0,-6 1,-9 1,-4 3,-8 5,-10 2,-3 5,-6 5,-8 0,-3 1,-8 3,-9 1,-1 2,-5 2,-5 -1,-4 -1,-5 0,-7 1,-2 0,-5 0,-6 0,-2 1,-10 1,-10 -1,-1 -2,-2 -4,-5 -2,-3 -6,-9 -6,-9 4,-5 3,-10 3,-10 0,-1 1,-6 1,-6l0 -9c-4,-2 -7,-1 -7,1 -1,2 -5,5 -5,5 -3,-4 -8,-7 -8,-7 -5,3 -8,4 -11,7 -3,2 -11,12 -13,13 -4,-2 -5,-1 -8,1 -4,3 -5,4 -7,4 -1,-1 -4,1 -5,3 -1,2 -3,2 -5,2 -2,-1 -8,0 -10,-3 -2,-2 -7,-4 -8,-5 -2,-1 -7,-3 -7,-3 -1,-3 -1,-5 -4,-7 -2,-2 -6,-4 -7,-6 -1,-2 -8,-5 -9,-6 -1,-1 0,-2 0,-3 0,-2 1,-4 1,-4 -3,-2 -4,-4 -6,-5 2,-3 3,-5 5,-7 -1,-4 0,-10 1,-15 -3,-7 -5,-11 -6,-13 3,-14 2,-14 4,-16 1,-3 2,-11 3,-14 1,-3 3,-6 4,-9 1,-3 7,-8 7,-8l4 -7c-2,-7 -1,-15 -1,-16 0,-1 0,-4 2,-6 2,-1 5,-4 5,-9 0,0 0,-1 0,-2 15,3 31,5 47,5 32,0 62,-7 89,-20 1,1 1,2 1,3 0,2 3,5 4,7 2,2 3,5 6,8 2,3 2,6 5,11 0,-3 -1,-10 -1,-12 3,20 4,40 3,61 -4,84 -39,159 -94,214zm-208 -545c-5,0 -14,0 -17,0 -3,1 -11,-1 -12,0 -2,1 -9,1 -12,1 -3,-1 -5,1 -6,1 -1,0 -5,1 -7,0 -2,-1 -2,-1 -6,1 -1,0 -4,0 -5,0 -1,1 -3,1 -4,1 -1,1 -3,2 -4,2 -1,0 -3,0 -4,1 -1,1 -4,1 -4,1 0,0 -4,0 -5,1 0,2 -2,2 -3,2 -2,0 -5,0 -6,1 0,1 -2,1 -2,1 -1,1 -6,2 -6,2 0,0 -4,1 -4,1 0,1 -2,0 -3,0 -2,0 -3,1 -4,2 0,-1 -1,-1 -2,-1 -1,0 -1,-1 -1,-1 0,0 0,0 1,-1 1,0 2,0 3,0 0,-1 2,-2 3,-2 1,1 4,-1 5,-1 6,-1 7,-3 4,-2 -2,0 -3,0 -4,0 0,-1 -1,-1 -2,-1 -1,0 -1,1 -1,0 0,0 1,-1 2,-1 2,-1 3,-1 3,-2 0,0 2,-2 3,-2 2,-1 3,-1 4,-1 1,-1 4,-2 5,-2 1,0 4,-1 4,-1 0,0 -2,0 1,0 2,-1 10,-2 12,-3 1,0 5,0 6,0 1,-1 8,-2 8,-2 17,-2 36,-3 54,-2 3,0 5,0 8,0 -1,2 -2,5 -2,7zm295 248c0,2 1,4 1,5 0,2 0,8 1,12 1,6 0,7 0,7 0,0 -1,-4 -2,-6 0,-3 -1,-7 -3,-8 -1,-1 -3,-4 -4,-7 3,-1 5,-2 7,-3zm-455 -202l0 0c0,0 -2,1 -4,1 -1,0 -2,0 -3,-3 0,-2 -2,-1 -7,-5 0,0 0,0 2,-1 2,-1 6,-1 8,0 1,1 6,-3 7,-6 1,-3 9,-6 13,-6 3,1 1,0 5,-2 0,0 1,3 2,4 2,1 6,0 7,-2 2,-2 3,-3 4,-4 2,-1 8,-3 8,-2 -1,1 0,2 -1,3 -1,1 -5,4 -5,4l6 -1c1,-3 3,-2 5,-2 1,-1 4,-1 5,-2 4,2 4,2 4,4 1,1 1,4 -2,3 -2,0 -4,2 -5,3 -1,1 -4,6 -6,8 -3,2 -4,3 -5,5 0,2 -5,6 -5,6l1 0c3,-1 3,-1 5,0 2,1 6,3 6,3 -1,5 -4,11 -4,14 0,3 -1,4 -1,4 -4,0 -5,1 -4,2 2,2 2,2 2,2 3,1 11,2 11,2 -3,2 -2,4 -3,4 0,0 1,3 1,3 3,1 8,3 6,8 4,-1 9,-2 9,-3 1,-2 3,-3 3,-3 -1,-2 -1,-4 -1,-4 3,-1 4,-1 5,-2 2,-3 4,-1 5,-2 1,-2 4,-3 5,-5 1,-1 1,-3 4,-2 2,2 3,5 2,4 -2,0 -6,1 -6,2 -1,1 -6,1 -6,2 0,1 -1,7 -3,7 -2,0 -3,2 -3,2l-2 5c4,-2 3,-1 6,-1 2,1 5,1 6,0 1,-2 2,1 2,1 0,0 1,1 1,3 0,2 -2,6 -3,6 -2,1 -4,2 -5,3 -2,2 -4,2 -5,0 -1,-2 -5,-4 -6,-3 -2,2 -6,3 -6,3 0,0 0,-4 0,0 0,3 -2,5 -2,5 -4,-1 -5,-1 -6,0 -1,1 -5,1 -5,1 0,0 -4,1 -5,3 -4,0 -6,0 -6,0 -3,3 -4,6 -6,6 -2,0 -4,6 -4,6 2,0 1,1 0,2 -1,2 -4,6 -4,6 4,-1 5,0 6,2 1,3 3,7 3,9 0,2 1,5 3,5 2,0 5,4 5,4 -5,3 -4,7 -4,8 -1,1 -2,5 -2,6 1,1 0,6 3,7 2,0 2,1 2,1 1,-1 3,-4 5,-4 -1,-2 -1,-2 0,-5 0,-2 -1,-6 1,-7 2,0 5,-1 5,-1 4,-1 8,-3 8,-3l2 -1c1,-5 1,-4 1,-7 1,-4 1,-3 0,-5 -1,-2 -2,-2 -2,-2 3,-1 4,-1 6,-1 2,-1 2,-3 2,-3 0,-3 1,-5 2,-6 1,-1 5,-5 5,-5 1,1 4,4 6,3 2,0 3,0 3,2 0,1 -1,5 1,6 1,1 4,1 4,1 -1,4 -1,9 -2,9 -2,0 -5,2 -5,2 6,3 6,1 8,1 3,0 7,-1 7,-1 0,0 3,-3 4,-4 2,2 2,4 1,6 -1,1 -2,3 -2,3l3 1c-2,3 -2,4 -1,6 2,2 -1,5 -1,5 4,3 6,6 8,8 2,2 5,3 5,3 -5,-1 -7,0 -8,1 -2,1 -6,1 -6,1 0,2 2,2 4,2 2,0 4,-2 6,-2 3,0 3,0 5,2 1,1 1,4 1,6 -1,2 -2,7 -4,6 -3,-2 -5,-2 -7,0 -1,2 -5,4 -6,4 -1,0 -9,-2 -9,-2 0,0 -4,-3 -7,-2 -4,1 -6,0 -6,0 -2,-1 -2,-1 -3,1 -1,3 -6,4 -7,3 -1,0 -4,3 -4,3 6,0 5,1 9,0 3,-2 8,-2 8,-1 1,2 0,5 -2,4 -2,-1 -6,1 -6,1 4,1 6,2 5,4 -2,2 -1,5 -1,5 0,0 1,4 2,4 2,0 7,3 8,3 0,0 1,2 2,2 1,1 2,1 -3,1 -6,0 -10,0 -11,2 -2,3 -5,6 -5,4 -1,-3 -2,-5 0,-6 2,0 9,-2 9,-2 -4,-2 -8,-4 -11,-3 -1,1 -3,1 -3,3 0,0 -3,1 -4,1 -1,0 -3,0 -4,0 -1,1 -3,1 -5,1 -1,0 -2,1 -2,3 -1,1 -1,2 -3,3 0,0 0,1 1,2 1,2 1,3 3,1 -1,2 -2,2 -3,2 -2,-1 -4,-2 -5,-1 -1,1 -2,0 -3,0 -2,-1 -2,0 -3,0 0,-1 -4,1 -6,2 0,0 0,1 0,2 1,1 -1,2 -2,2 -1,1 -1,2 -4,3 0,0 0,-3 -1,-4 0,0 0,3 1,4 0,1 -1,2 -1,3 -1,1 -2,1 -3,3 -1,2 -1,1 -3,0 -1,-1 1,-1 1,-3 0,-1 1,-3 1,-3 0,0 1,-2 2,-3 1,-1 1,-1 0,-1 -2,1 -2,1 -3,2 0,1 0,2 0,3 -1,0 -1,2 -1,1 0,-1 -1,-1 -2,-3 0,0 1,4 1,5 1,1 0,2 -2,5 0,0 1,-1 2,1 1,1 0,3 -2,7 0,0 -4,3 -5,4 -1,0 -7,2 -11,3 -4,1 -8,1 -11,4 -2,3 0,0 0,0 0,0 -2,4 -4,6 0,0 -1,2 -1,4 -1,2 -1,11 -1,17 0,5 -2,3 -2,6 -1,3 -1,4 -3,4 -3,2 -5,-2 -3,-6 0,-1 -1,-11 -1,-12 0,0 2,-4 2,-6 0,-2 -1,-7 -2,-8 -1,0 -6,-1 -8,-6 -2,-5 -2,-1 -6,-2 -5,0 -2,2 -5,-1 -3,-4 -3,2 -3,2 0,0 -5,-2 -7,-6 -1,-3 -3,-1 -3,-1 0,0 -8,-4 -6,-3 2,1 -5,3 -9,2 -3,-1 -3,2 -4,4 -1,3 -1,4 -3,8 0,0 -3,4 -4,4 -1,1 -2,1 -1,4 0,0 -2,2 -2,4 0,2 0,4 -2,7 0,0 -1,4 0,7 0,3 1,3 -1,7 0,2 1,3 2,5 0,3 1,3 2,7 0,0 4,1 7,1 3,0 3,0 4,3 1,4 0,0 0,0 0,0 4,1 5,-4 0,0 2,-3 2,-5 1,-2 2,-2 4,-2 2,1 2,1 5,2 3,0 3,1 4,3 2,2 2,2 0,3 -1,2 -1,1 -3,4 -1,1 -2,4 -2,5 -1,2 0,3 -2,4 0,0 -1,-2 -1,-3 0,0 -1,2 -2,4 0,1 0,2 0,4 0,0 0,0 -1,1 0,0 0,2 -3,3 0,0 1,1 2,2 0,1 2,2 6,3 3,0 2,0 3,1 0,1 2,1 3,2 2,0 4,2 4,3 0,2 2,3 3,4 1,1 1,1 0,3 -1,0 0,1 -1,3 0,0 0,4 -2,6 -1,2 -1,3 -1,5 0,2 0,2 -1,5 0,0 0,2 1,4 0,1 0,1 1,2 2,2 3,5 4,6 1,2 1,3 2,3 1,0 4,0 8,0 4,0 3,0 4,2 1,2 2,3 6,6 2,1 6,1 6,0 1,-1 3,-3 3,-3 1,-4 -1,-3 2,-4 3,0 7,2 10,0 3,-2 7,-1 9,-3 2,-2 2,-1 2,-1 1,1 0,0 -1,2 -1,1 -4,7 -4,8 1,0 1,2 2,3 3,0 3,0 4,-1 2,0 2,-1 3,-1 0,-1 1,-2 0,-3 2,0 3,1 3,1 2,1 3,4 5,4 1,0 2,2 3,3 3,0 4,0 6,1 1,1 2,0 3,1 2,0 4,2 5,3 2,0 5,1 7,1 2,1 3,1 4,1 2,1 2,0 2,1 1,1 2,2 3,2 1,0 6,4 6,4 -1,2 -2,4 -1,4 0,1 2,1 3,2 0,0 3,0 4,1 1,1 2,3 3,4 2,1 4,3 4,6 0,3 4,5 4,5 2,0 4,0 6,1 2,0 5,0 6,0 2,1 4,0 6,2 6,2 7,4 8,6 4,2 4,2 5,3 1,1 5,2 5,5 1,2 1,4 3,5 1,1 4,2 2,4 -2,2 -6,6 -6,6 -5,3 -2,3 -2,4 1,1 0,2 1,4 2,-3 1,0 3,-5 1,-4 3,-1 4,-1 1,1 6,3 7,3 0,0 -3,5 -6,5 -3,0 -5,0 -5,0 1,2 2,2 4,3 1,0 2,0 4,-2 2,-1 3,-4 6,-5 3,0 5,0 8,2 4,2 11,4 13,5 2,2 3,3 7,3 3,0 7,0 9,2 3,1 4,1 6,1 2,-1 4,0 6,2 2,1 7,5 9,6 2,1 3,2 5,2 2,-1 6,0 6,0 0,0 3,3 2,9 -1,5 -2,8 -2,8 0,1 -5,6 -8,6 -2,1 -3,3 -5,5 -1,1 -2,2 -3,3 0,1 -4,3 -6,5 0,1 0,2 -2,4 1,1 1,1 1,3 -1,1 0,2 -1,4 0,1 -2,3 -1,6 0,0 -1,1 -3,3 -2,1 -3,5 -4,7 -2,0 -2,1 -2,3 -2,0 -2,0 -3,3 -2,0 -4,1 -5,2 0,0 -3,1 -4,0 -1,0 -3,0 -4,0 -2,1 -3,1 -5,0 0,0 -3,2 -3,2 -1,0 -4,1 -5,1 -1,0 -3,1 -4,1 -1,1 -2,2 -5,2 0,1 -1,2 -2,2 -1,0 -1,1 -2,1 -1,1 0,4 0,5 0,0 1,0 0,2l-3 3c-2,0 -4,0 -5,2 -1,1 -2,1 -4,2 -1,0 -1,0 -2,2 -2,0 -2,0 -2,1 -1,0 -2,2 -4,2 -1,0 -5,2 -7,3 -2,1 -5,-1 -6,-1 0,0 -4,-2 -4,-2 -1,0 -3,0 -4,-1 0,-1 -1,-1 -2,0 -1,-2 -2,-2 -2,-1 1,2 3,2 4,3 0,1 2,3 4,4 1,1 2,1 2,2 -1,1 -5,2 -5,2 0,0 1,-1 0,0 -1,0 -4,-2 -5,-1 -1,1 -6,-1 -6,-1 -1,0 -2,-1 -3,0 -1,0 -2,0 -4,-1 0,0 1,1 1,2 -1,1 0,2 1,3 0,0 -1,1 -1,1 -1,0 -3,0 -3,0 -1,1 -2,1 -2,1 -1,0 -2,0 -1,2 0,0 2,3 3,4 1,2 -2,2 -4,3l-2 -1c0,0 -3,-1 -4,-1 -2,0 -4,-1 -5,-3 -2,-1 -3,-1 -4,-1 -2,0 -4,-1 -6,-3 -1,-2 -1,-1 -3,-3 -2,-2 -4,-4 -5,-8 -4,0 -6,-1 -6,-2 -1,-1 -3,-3 -3,-4 -1,-2 -1,-3 -3,-5 0,-1 1,-4 3,-7 0,0 -3,-6 -4,-10 -1,-3 -2,-8 -1,-9 0,-2 0,-5 -1,-8 0,-3 -1,-5 0,-7 2,-2 0,-4 0,-7 -1,-3 -2,-4 -3,-6 -1,-3 -2,-3 -3,-5 0,-1 -3,-3 -5,-4 -2,-1 -4,-2 -5,-4 -1,-2 -3,-3 -4,-4 -2,-1 -3,-1 -5,-4 -2,-3 -5,-3 -6,-5 -2,-2 -4,-4 -4,-5 0,-2 -1,-5 -3,-6 -1,-2 -2,-4 -2,-6 0,-2 -2,-3 -3,-6 -2,-3 -2,-3 -2,-5 -1,-2 -1,-3 -4,-8 -1,-2 -7,-8 -8,-10 -2,-2 -1,-5 -2,-6 -1,-2 0,-4 2,-3 2,0 2,-2 3,-3 0,-2 0,-3 -2,-5 0,0 0,-4 0,-6 -1,-3 2,-2 2,-5 0,-2 1,-3 3,-3 2,0 4,0 5,-3 1,-3 3,-4 5,-2 2,1 2,0 5,-4 0,0 -1,0 -3,-2 -2,-2 1,-9 1,-11 0,-3 0,-2 -2,-7 -1,-3 -1,-4 0,-5 1,-1 1,0 0,-2 -1,-1 -5,-4 -5,-4 -2,1 -4,1 -5,2 -1,0 -1,0 -1,0 2,2 1,4 2,4 0,0 -2,1 -3,1 -1,-3 -2,-3 -2,-4 0,0 -1,-1 -1,-2 0,-1 -1,-1 -3,-2 -1,-1 -3,-2 -4,-4 -1,-1 -4,-5 -4,-7 0,-2 -2,-4 -2,-4 -1,1 -1,2 -1,2 -1,-1 -3,-2 -2,-4 0,-1 0,-5 0,-5 -2,-4 -5,-16 -5,-16 -3,0 -3,0 -4,-1 -1,-1 -4,-5 -6,-6 -2,-2 -2,-4 -4,-6 -1,-2 -2,-4 -3,-6 -1,-1 -2,-6 -2,-6 -2,-2 -5,-5 -5,-5 -4,1 -4,0 -5,-1 -1,-1 -4,-4 -4,-5 0,-1 -1,-2 -2,-3 0,-2 -1,-4 -3,-5 -1,-2 -1,-6 -3,-7 -2,-2 -2,-5 -3,-6 0,-1 -1,-3 -2,-5 0,-1 0,-3 -1,-4 0,-1 0,-3 0,-3 0,0 0,1 0,0 -1,-1 -1,-3 -1,-4 1,-2 5,-14 5,-14 -1,-6 -1,-9 -1,-9 1,-1 1,-2 0,-3 0,-2 -1,-3 0,-4 -1,-2 0,-4 0,-4 0,-2 0,-3 0,-3 1,-2 2,-4 2,-4 -1,-2 -1,-2 0,-4l0 -5c0,0 1,-6 1,-8 -1,-2 1,-9 3,-11 1,-3 2,-9 1,-12 0,0 -5,11 -6,12 0,1 -1,6 -1,7 -1,2 -1,4 -1,6l-2 5c0,0 0,5 -1,7 -2,2 -2,9 -2,11 0,3 0,5 0,5 0,0 -2,3 -2,2 -1,-1 -1,-5 0,-8 0,0 0,-3 -1,-4 -1,-2 3,-11 4,-15l-1 -8c0,0 0,0 4,-2 0,0 0,-6 1,-9 1,-3 3,-8 4,-10 0,-3 3,-9 5,-16 0,0 0,-5 0,-7 -1,-2 2,-5 3,-7 0,-3 4,-8 7,-11l-1 -2c0,0 1,-1 3,-4 1,-2 2,-3 4,-6 1,-2 5,-6 5,-6 2,0 13,-12 16,-13 2,-1 7,-8 10,-12 2,-5 1,-1 1,3 0,0 5,-6 8,-8 2,-2 4,-9 4,-11 0,-2 18,-17 21,-19 3,-1 1,-2 -1,-2 0,0 2,-2 4,-3 3,-2 9,-7 13,-9 3,-1 1,-2 -1,-2 -3,0 -6,4 -5,2 1,-2 6,-7 8,-8 2,0 3,-4 3,-6 1,-2 8,-6 10,-9zm108 148l0 0c0,0 -5,3 -7,4 -2,1 -2,2 -3,4 0,2 -1,4 -1,4 0,0 -1,1 -3,1 -2,0 -3,3 -3,6 3,-1 6,1 7,2 1,1 13,6 13,6 1,-4 3,-5 4,-6 1,-1 0,-3 -1,-5 -1,-1 -1,-3 -1,-3l-4 -3c-2,-1 -2,-2 -7,0 0,0 2,-3 2,-4 1,-1 2,-4 4,-6zm-83 171l0 0c-2,-1 -3,-1 -3,-1 -1,0 -1,1 -1,1 0,1 -1,2 1,2 2,0 2,1 3,1 1,0 3,-1 3,-1l-3 -2zm-31 -9l0 0c0,0 -3,0 -3,-1 -1,0 0,0 -1,-1 0,0 -2,0 -3,1 0,0 1,1 2,2 0,1 1,1 2,1 1,-1 2,0 3,1 1,0 1,0 4,1 0,0 1,1 1,3 1,1 2,0 3,0 2,-1 3,-1 6,0 1,-2 5,-1 6,-1 1,1 1,0 1,-1 0,-1 -2,-2 -3,-3 -1,0 -1,-1 -2,-3 0,-1 -1,-2 -3,-2 -2,0 -3,-1 -4,-2 -1,-1 -3,-1 -4,-1 -2,0 -2,0 -3,-1 -2,-1 -2,-1 -3,0 0,0 0,2 1,3 0,0 0,2 1,3 1,1 0,1 -1,1zm-25 -7l0 0c2,1 2,1 2,1 0,1 1,3 2,3 0,0 3,1 4,1 0,0 0,0 0,-1 -1,-2 -3,-3 -3,-3 0,0 -3,-1 -3,-1 0,0 -3,-2 -2,0zm-23 -31l0 0c0,0 3,1 4,0 1,0 3,0 5,2 1,2 3,2 5,3 2,1 4,1 4,3 0,2 5,4 7,5 2,1 1,1 1,4 1,2 5,4 6,4 0,0 -2,0 -4,2 -3,3 2,2 5,2 3,-1 7,1 10,2 0,0 0,-2 -4,-5 -1,-1 -3,-3 -3,-3 0,0 -6,-7 -7,-8 -2,-1 -10,-10 -12,-11 -2,-1 -4,-3 -6,-2 -2,1 -4,-1 -5,-1 -1,0 -4,1 -6,3zm126 -106l0 0c0,3 0,3 2,5 1,1 2,1 5,0 2,-1 2,-2 2,-2 -2,2 -4,2 -5,0 0,-1 -3,-5 -3,-5l-1 2zm9 10l0 0c2,-1 5,-1 5,-1 1,-1 -1,-4 -1,-6 -4,4 -5,4 -4,7zm63 -162l0 0c0,0 -10,3 -12,4 -2,1 -2,1 1,2 0,0 -2,1 -4,3 0,0 -2,1 -6,1 -5,0 -4,2 -4,5 -1,2 0,2 2,5 0,0 6,0 8,1 2,1 2,2 3,5 1,4 0,5 2,9 0,0 -2,2 -2,4 -1,3 1,3 5,3 0,2 2,5 1,9 0,0 -4,3 -6,4 -1,0 -2,3 -2,5 -1,2 -1,4 -1,4 0,0 2,5 1,7 0,2 0,4 2,7 3,3 3,5 3,7 1,2 3,3 4,4 1,1 6,4 9,6 0,0 4,-2 5,-3 2,-1 2,-3 2,-6 -1,-2 -2,-4 0,-5 1,-1 4,-3 5,-5 -7,-21 -12,-45 -12,-69 0,-1 0,-3 0,-4 -1,-1 -4,-2 -4,-3zm-40 3l0 0c2,0 7,-1 7,0 1,0 2,-1 2,-1 0,0 0,2 0,0 -1,-1 0,-2 1,-3 0,0 2,-4 2,-4 -4,0 -5,-1 -6,1 -1,1 -3,1 -4,2 0,0 -1,1 -1,3 -1,1 -4,4 -1,2zm-24 -8l0 0c-1,-1 -2,-2 -3,-1 -1,0 -2,1 -3,1 -1,0 0,1 -2,2 -3,2 -1,2 0,2 1,1 1,2 2,1 1,0 2,1 4,3 2,1 0,0 0,0 0,0 2,-1 3,-1 1,-1 1,-1 2,-1 0,-1 1,-2 2,-3 1,-2 -2,-1 -2,-1 0,0 -3,-1 -3,-2zm3 -3l0 0c2,0 2,-1 1,-1 -1,-1 -2,-1 -2,-2 -4,1 -6,0 -6,0 0,0 -1,0 -1,1 0,1 -1,2 1,1 1,0 3,0 3,1 1,0 4,0 4,0zm6 13l0 0c1,0 3,-1 1,-2 -2,-1 -2,-1 -3,-1 -2,1 -4,1 -4,1 0,2 -2,3 -1,3 1,1 3,2 3,2 1,-2 4,-3 4,-3zm8 -7l0 0c-2,2 -2,2 -1,2 1,-1 2,-2 3,-2 1,0 0,-1 1,-2 0,-2 0,-1 -1,-2 0,0 -2,1 -4,1 -2,1 2,2 2,3zm-6 -4l0 0c-2,-2 0,-2 -2,-1 -2,0 -4,1 -2,1 2,0 4,0 4,0zm-5 16l0 0 4 -2c0,0 -2,0 -2,0 -1,-1 -2,1 -2,2zm-36 -13l0 0c2,0 3,0 4,1 0,0 2,0 2,0 2,0 3,0 4,1 0,0 2,0 3,0 0,0 2,0 2,0 0,-1 0,-2 1,-3 1,-1 2,-4 2,-4 -1,-1 -1,-2 -2,-1 -2,1 -4,1 -4,1 0,0 -2,0 -4,0 -1,1 -3,1 -3,1 -1,0 -2,0 -3,1 -1,1 -3,3 -3,3l1 0zm50 5l0 0c0,-2 1,-3 2,-4 -4,2 -5,3 -5,3l3 1zm-29 16l0 0c1,-1 1,-2 3,-3 2,-1 6,-4 6,-4 -3,0 -2,-1 -3,-2 0,-1 -2,-1 -2,-1 0,2 -1,3 -2,3 -1,1 -3,2 -4,3 0,1 -5,5 -3,5 2,0 5,-1 5,-1zm32 -1l0 0 2 -1c-1,0 -3,-1 -4,-1 0,-1 -3,-1 -4,-1 -1,0 -2,-1 -2,-2 -1,-1 0,-2 2,-3l-1 -5 -2 -1c0,0 -2,1 -2,2 0,1 -1,2 -1,3 0,1 -1,2 -2,4 -1,2 2,2 3,2 1,0 6,4 8,5 1,1 2,-1 3,-2zm15 -23l0 0c-1,2 -3,5 -4,6 0,0 0,1 0,1 1,1 0,4 0,4 -5,1 -10,4 -11,3 -1,0 -4,1 -3,3 2,1 5,3 5,3 0,-1 3,-1 3,-3 -1,-1 1,-2 1,-2 0,0 2,3 4,2 2,-2 5,-2 6,-3 1,-1 8,-4 9,-4 1,0 11,-6 11,-6 -5,-1 -5,-1 -6,-3 -1,-1 -5,-2 -5,-2 -3,1 -7,1 -7,1 -1,-1 -3,0 -3,0zm-57 30l0 0c1,-2 -1,-1 -1,-1 -1,1 -2,1 -4,1 -1,1 -2,1 -1,1 1,1 1,2 1,2 0,1 2,1 3,2 2,0 1,-2 1,-2 0,0 1,-2 1,-3zm-10 -7l0 0c-1,1 -2,3 0,2 1,0 1,0 2,1 1,1 4,1 4,1 0,-2 0,-3 2,-3 1,-1 1,-4 1,-4 0,-1 2,-3 3,-3 1,0 3,-2 3,-2l3 -3c-1,-1 -3,-2 -3,-2 0,0 0,-2 -2,-2 -3,0 -5,1 -6,0 -1,-2 -6,-1 -6,-1 -3,2 -4,2 -4,3 0,1 -3,4 -3,4 -1,0 -2,1 -2,2 -1,1 -1,4 -1,4 3,0 3,0 4,1 1,1 3,1 3,1 1,0 2,0 2,1zm45 9l0 0c2,0 2,0 3,1 0,0 1,0 2,0 0,-1 -1,-1 -1,-2 0,-1 -1,-2 -1,-2 0,0 -2,-1 -2,-1 -1,1 -3,3 -1,4zm-9 22l0 0 2 -2 -1 -1c0,0 -2,0 -3,1 0,1 -1,1 -2,1 -1,0 -1,1 0,1 1,0 3,0 4,0zm-10 -18l0 0c0,1 0,2 2,2 1,0 3,0 3,1 1,1 4,1 5,1 2,0 2,1 3,2l0 7c0,0 0,2 1,8l-2 2c0,0 -3,1 -4,1 -2,1 -1,2 -1,4 0,0 -1,-1 -2,-1 -1,1 -4,-1 -5,-2 -2,0 -1,0 -2,1 0,0 -1,1 -3,1l2 2c0,0 0,2 1,2 1,0 4,2 5,3 2,0 2,3 3,4 0,1 0,2 1,3 1,0 3,3 4,3 1,0 1,1 4,3 0,1 3,1 5,-1 0,0 1,-2 1,-4 0,-1 2,-3 3,-5 0,0 -3,-2 -4,-2 0,-1 0,-2 0,-2 1,-1 1,-4 1,-6 -1,-2 0,0 0,0 0,0 0,0 3,0l1 3c0,0 1,3 2,4 0,2 1,2 2,1 1,-1 3,-3 4,-3 1,0 2,-1 2,-3 0,0 -2,-2 -3,-2 -1,-1 -1,-3 -1,-3 0,0 -1,-7 0,-9 0,-2 -1,-3 -1,-4 0,0 -2,-4 -3,-5 0,-2 -3,-4 -4,-5 -1,-1 -2,-1 -2,-1 0,-1 -2,-3 -4,-3 0,-2 2,-5 2,-5 0,0 -2,-2 -4,-2 0,0 -1,-1 -2,-1 -1,1 -4,1 -6,0 0,0 -2,1 -2,2 -1,1 -2,1 -3,2 -1,0 -2,1 -2,1 0,0 0,2 -2,3 -1,1 2,2 2,3z"/>
  <path class="fil1" d="M411 157c2,0 5,0 9,1 4,0 7,0 10,0l18 1 -6 17c-4,11 -7,22 -9,33 -2,11 -3,22 -3,34 0,54 22,102 57,137 35,34 83,56 137,56 16,0 33,-2 48,-6 15,-4 30,-10 44,-17l16 -9 4 18c3,12 5,24 6,36 1,12 2,24 2,37 0,93 -37,177 -98,238 -60,61 -143,99 -235,99 -92,0 -175,-38 -236,-99 -60,-61 -97,-145 -97,-238 0,-93 37,-178 97,-239 61,-61 144,-99 236,-99zm0 27l0 0c-85,0 -161,35 -217,91 -55,56 -89,134 -89,220 0,85 34,163 89,219 56,56 132,91 217,91 84,0 161,-35 216,-91 55,-56 90,-134 90,-219 0,-12 -1,-23 -2,-34 -1,-6 -1,-11 -2,-16 -11,5 -23,8 -35,11 -17,5 -35,7 -54,7 -61,0 -116,-24 -156,-64 -40,-40 -65,-95 -65,-156 0,-13 1,-26 3,-39 2,-6 3,-13 5,-20z"/>
  <path class="fil2" d="M601 420l48 0c25,-7 40,-9 63,-23 18,-10 34,-23 47,-38 97,-115 16,-293 -136,-292 -151,1 -231,179 -133,293 32,37 64,49 111,60zm7 -164c-10,12 -11,9 -26,32 -6,9 -21,33 -16,42 14,5 48,-53 53,-67 4,-1 26,0 24,-21 -1,-15 -15,-19 -28,-16 -6,-8 -12,-19 -19,-28 -11,-15 -56,-75 -70,-74 -4,22 81,110 81,110 0,2 -2,7 -2,11 0,5 2,6 3,11zm8 115l12 0c1,0 2,0 2,0l0 34c0,0 0,0 -1,0l-12 0c-1,0 -2,0 -2,0l0 -34c0,0 0,0 1,0zm0 -288l13 0c0,0 1,0 1,0l0 33c0,0 0,1 0,0l-13 1c-1,-1 -2,-1 -2,-1l0 -33c0,0 1,0 1,0zm-120 154l0 12c0,1 0,2 0,2l-33 0c0,0 -1,0 -1,-1l0 -12c0,-1 1,-2 1,-2l33 0c0,0 0,1 0,1zm289 0l0 12c0,1 0,2 0,2l-34 0c0,0 0,0 0,-1l0 -12c0,-1 0,-2 0,-2l34 0c0,0 0,1 0,1z"/>
 </g>
</svg>
