<?xml version="1.0" encoding="UTF-8"?>
<!DOCTYPE svg PUBLIC "-//W3C//DTD SVG 1.1//EN" "http://www.w3.org/Graphics/SVG/1.1/DTD/svg11.dtd">
<!-- Creator: CorelDRAW X7 -->
<svg xmlns="http://www.w3.org/2000/svg" xml:space="preserve" width="86px" height="86px" version="1.1" style="shape-rendering:geometricPrecision; text-rendering:geometricPrecision; image-rendering:optimizeQuality; fill-rule:evenodd; clip-rule:evenodd"
viewBox="0 0 917 916"
 xmlns:xlink="http://www.w3.org/1999/xlink">
 <defs>
  <style type="text/css">
   <![CDATA[
    .str1 {stroke:#D5281E;stroke-width:12.6504}
    .str0 {stroke:#FEFEFE;stroke-width:9.6396}
    .fil0 {fill:none}
    .fil4 {fill:none;fill-rule:nonzero}
    .fil2 {fill:#8A8A8A}
    .fil1 {fill:#8A8A8A;fill-rule:nonzero}
    .fil3 {fill:#D5281E;fill-rule:nonzero}
   ]]>
  </style>
 </defs>
 <g id="Capa_x0020_1">
  <metadata id="CorelCorpID_0Corel-Layer"/>
  <ellipse class="fil0 str0" cx="5" cy="911"/>
  <ellipse class="fil0 str0" cx="912" cy="911"/>
  <ellipse class="fil0 str0" cx="5" cy="6"/>
  <ellipse class="fil0 str0" cx="910" cy="5"/>
  <path class="fil1" d="M255 236l61 0 8 0 0 8 0 62 0 9 -8 0 -61 0 -9 0 0 -9 0 -62 0 -8 9 0zm52 17l-44 0 0 44 44 0 0 -44z"/>
  <path class="fil1" d="M684 665c5,0 9,4 9,9 0,5 -4,8 -9,8l-306 0c-5,0 -9,-3 -9,-8 0,-5 4,-9 9,-9l306 0z"/>
  <path class="fil1" d="M684 732c5,0 9,4 9,8 0,5 -4,9 -9,9l-306 0c-5,0 -9,-4 -9,-9 0,-4 4,-8 9,-8l306 0z"/>
  <path class="fil1" d="M519 240c5,0 8,4 8,9 0,5 -3,9 -8,9l-134 0c-5,0 -8,-4 -8,-9 0,-5 3,-9 8,-9l134 0z"/>
  <path class="fil1" d="M519 294c5,0 8,4 8,9 0,5 -3,9 -8,9l-134 0c-5,0 -8,-4 -8,-9 0,-5 3,-9 8,-9l134 0z"/>
  <polygon class="fil2" points="393,570 457,390 494,461 516,450 553,523 578,484 610,550 637,476 673,597 384,597 "/>
  <path class="fil0" d="M768 752c-1,40 -24,64 -67,71l-400 -1"/>
  <line class="fil0" x1="157" y1="487" x2="157" y2= "186" />
  <line class="fil0" x1="216" y1="118" x2="530" y2= "118" />
  <path class="fil0" d="M219 118c-37,6 -57,29 -62,70"/>
  <line class="fil0" x1="774" y1="351" x2="517" y2= "113" />
  <path class="fil1" d="M516 136l0 -1 -296 1c-13,2 -24,7 -31,16 -8,9 -13,21 -15,38l0 297 -35 0 1 -301 1 0 -1 0c2,-24 10,-43 23,-57 13,-15 31,-24 53,-28l0 0 0 0 313 0 0 0 0 0 1 0 0 0 255 236 1 0 0 1 0 0 0 1 -1 415 0 0c-1,24 -8,43 -22,58l0 0c-14,14 -34,24 -59,28l-1 0 -2 0 -326 0 -93 1 0 -35 19 0 0 -1 74 0 11 0 0 0 314 0c17,-2 29,-8 38,-17l0 0c8,-9 12,-21 13,-36l0 -395 -168 0c-36,1 -66,-29 -66,-66l-1 -155z"/>
  <line class="fil0" x1="768" y1="754" x2="768" y2= "337" />
  <path class="fil3" d="M200 775c0,-10 -4,-19 -11,-26 -7,-8 -19,-14 -36,-20 -23,-7 -40,-16 -52,-28 -11,-11 -17,-27 -17,-46 0,-19 5,-34 16,-46 11,-11 26,-19 44,-21l0 -38 27 0 0 38c19,3 34,10 44,24 11,13 16,30 16,52l-33 0c0,-14 -4,-26 -11,-35 -7,-9 -17,-14 -29,-14 -14,0 -24,4 -31,11 -6,7 -10,16 -10,29 0,11 4,20 11,26 7,7 19,14 37,20 23,7 40,17 52,28 11,11 16,26 16,45 0,20 -5,35 -17,47 -12,11 -28,18 -48,20l0 33 -27 0 0 -32c-20,-2 -36,-10 -48,-22 -13,-12 -19,-30 -18,-53l0 -1 33 0c0,17 4,30 13,37 9,7 20,11 32,11 15,0 26,-3 35,-10 8,-7 12,-17 12,-29z"/>
  <path id="1" class="fil4 str1" d="M200 775c0,-10 -4,-19 -11,-26 -7,-8 -19,-14 -36,-20 -23,-7 -40,-16 -52,-28 -11,-11 -17,-27 -17,-46 0,-19 5,-34 16,-46 11,-11 26,-19 44,-21l0 -38 27 0 0 38c19,3 34,10 44,24 11,13 16,30 16,52l-33 0c0,-14 -4,-26 -11,-35 -7,-9 -17,-14 -29,-14 -14,0 -24,4 -31,11 -6,7 -10,16 -10,29 0,11 4,20 11,26 7,7 19,14 37,20 23,7 40,17 52,28 11,11 16,26 16,45 0,20 -5,35 -17,47 -12,11 -28,18 -48,20l0 33 -27 0 0 -32c-20,-2 -36,-10 -48,-22 -13,-12 -19,-30 -18,-53l0 -1 33 0c0,17 4,30 13,37 9,7 20,11 32,11 15,0 26,-3 35,-10 8,-7 12,-17 12,-29z"/>
  <line class="fil0" x1="282" y1="824" x2="386" y2= "822" />
 </g>
</svg>
