<?xml version="1.0" encoding="UTF-8"?>
<!DOCTYPE svg PUBLIC "-//W3C//DTD SVG 1.1//EN" "http://www.w3.org/Graphics/SVG/1.1/DTD/svg11.dtd">
<!-- Creator: CorelDRAW X7 -->
<svg xmlns="http://www.w3.org/2000/svg" xml:space="preserve" width="86px" height="86px" version="1.1" style="shape-rendering:geometricPrecision; text-rendering:geometricPrecision; image-rendering:optimizeQuality; fill-rule:evenodd; clip-rule:evenodd"
viewBox="0 0 945 944"
 xmlns:xlink="http://www.w3.org/1999/xlink">
 <defs>
  <style type="text/css">
   <![CDATA[
    .str0 {stroke:#FEFEFE;stroke-width:9.93058}
    .fil0 {fill:none}
    .fil2 {fill:#8A8A8A}
    .fil3 {fill:#D5281E}
    .fil1 {fill:#8A8A8A;fill-rule:nonzero}
   ]]>
  </style>
 </defs>
 <g id="Capa_x0020_1">
  <metadata id="CorelCorpID_0Corel-Layer"/>
  <ellipse class="fil0 str0" cx="5" cy="939"/>
  <ellipse class="fil0 str0" cx="939" cy="939"/>
  <ellipse class="fil0 str0" cx="6" cy="7"/>
  <ellipse class="fil0 str0" cx="937" cy="5"/>
  <line class="fil0" x1="544" y1="488" x2="237" y2= "488" />
  <path class="fil1" d="M544 479c4,0 8,4 8,9 0,5 -4,9 -8,9l-307 0c-5,0 -9,-4 -9,-9 0,-5 4,-9 9,-9l307 0z"/>
  <line class="fil0" x1="490" y1="557" x2="237" y2= "557" />
  <path class="fil1" d="M490 548c5,0 9,4 9,9 0,5 -4,9 -9,9l-253 0c-5,0 -9,-4 -9,-9 0,-5 4,-9 9,-9l253 0z"/>
  <path class="fil2" d="M762 359l-173 0c-37,0 -68,-30 -68,-68l-1 -160 0 0 -305 0c-14,2 -24,8 -32,16 -8,10 -13,22 -15,39l-1 580 1 0c0,16 5,28 13,37l0 0c8,9 21,15 39,18l79 0 0 0 161 0 170 0 0 0 79 0c18,-3 31,-9 39,-18l0 0c9,-9 13,-21 14,-37l0 -407zm-299 497l-245 1 -1 0 -1 -1c-27,-4 -47,-14 -61,-29l0 0c-14,-14 -21,-33 -23,-56l0 0 0 -588 1 0 -1 0c3,-25 11,-45 24,-59 14,-15 32,-25 55,-29l0 1 0 -1 322 0 0 0 0 0 1 0 0 1 263 243 1 0 0 0 0 1 0 0 -1 427 0 0 0 0 0 1 0 0c-1,24 -8,44 -23,59l0 0c-14,15 -34,25 -60,29l-2 1 -1 0 -248 -1z"/>
  <line class="fil0" x1="786" y1="353" x2="521" y2= "108" />
  <path class="fil0" d="M150 766c0,2 0,3 0,5 3,38 26,61 68,68l412 -1m-419 -725l323 0m-320 0c-38,6 -59,30 -64,72l0 0m0 586l0 -588m629 585l1 -429"/>
  <path class="fil3" d="M302 269c3,13 14,38 7,52 -4,7 -44,19 -54,32 -7,9 -12,24 -12,38 26,14 58,16 89,18 13,0 38,-1 48,-3 7,-2 16,-4 22,-6 10,-3 19,-8 28,-12 9,-6 1,-21 -3,-29 -2,-4 -8,-11 -13,-13 -3,-3 -5,-3 -8,-5l-37 -16c-6,-3 -6,-2 -7,-7 -3,-16 2,-33 6,-47 2,1 4,3 8,-7 2,-5 3,-11 3,-17l-4 -2c3,-22 3,-33 -10,-45 -27,-22 -70,-6 -70,27 0,5 0,10 0,14 0,8 -4,4 -3,12 0,6 6,24 10,16zm54 56l23 35 -32 48 -6 -31 -4 -21 4 -3 5 -3 -2 -6 -2 -7 -7 0 -6 0 -2 7 -3 6 6 3 3 3 -4 21 -5 31 -31 -48 23 -35c5,3 13,5 20,5 8,0 15,-2 20,-5z"/>
  <path class="fil3" d="M464 770c0,5 5,9 11,9l219 0c6,0 11,-4 11,-9l0 0c0,-6 -5,-10 -11,-10l-219 0c-6,0 -11,4 -11,10l0 0z"/>
  <path class="fil3" d="M652 592c0,-6 -5,-11 -11,-11l-16 0c-7,0 -12,5 -12,11l0 148c0,6 5,11 12,11l16 0c6,0 11,-5 11,-11l0 -148z"/>
  <path class="fil3" d="M699 641c0,-6 -5,-11 -12,-11l-16 0c-6,0 -11,5 -11,11l0 99c0,6 5,11 11,11l16 0c7,0 12,-5 12,-11l0 -99z"/>
  <path class="fil3" d="M605 665c0,-6 -5,-11 -11,-11l-16 0c-7,0 -12,5 -12,11l0 75c0,6 5,11 12,11l16 0c6,0 11,-5 11,-11l0 -75z"/>
  <path class="fil3" d="M557 707c0,-6 -5,-11 -11,-11l-16 0c-7,0 -12,5 -12,11l0 34c0,6 5,11 12,11l16 0c6,0 11,-5 11,-11l0 -34z"/>
  <path class="fil3" d="M509 644c0,-6 -5,-11 -11,-11l-16 0c-7,0 -12,5 -12,11l0 97c0,6 5,10 12,10l16 0c6,0 11,-4 11,-10l0 -97z"/>
  <line class="fil0" x1="405" y1="626" x2="237" y2= "626" />
  <path class="fil1" d="M405 617c5,0 9,4 9,9 0,5 -4,9 -9,9l-168 0c-5,0 -9,-4 -9,-9 0,-5 4,-9 9,-9l168 0z"/>
 </g>
</svg>
