<?xml version="1.0" encoding="UTF-8"?>
<!DOCTYPE svg PUBLIC "-//W3C//DTD SVG 1.1//EN" "http://www.w3.org/Graphics/SVG/1.1/DTD/svg11.dtd">
<!-- Creator: CorelDRAW X7 -->
<svg xmlns="http://www.w3.org/2000/svg" xml:space="preserve" width="86px" height="86px" version="1.1" style="shape-rendering:geometricPrecision; text-rendering:geometricPrecision; image-rendering:optimizeQuality; fill-rule:evenodd; clip-rule:evenodd"
viewBox="0 0 972 971"
 xmlns:xlink="http://www.w3.org/1999/xlink">
 <defs>
  <style type="text/css">
   <![CDATA[
    .str0 {stroke:#FEFEFE;stroke-width:10.2185}
    .fil0 {fill:none}
    .fil1 {fill:#8A8A8A}
    .fil2 {fill:#D5281E}
   ]]>
  </style>
 </defs>
 <g id="Capa_x0020_1">
  <metadata id="CorelCorpID_0Corel-Layer"/>
  <circle class="fil0 str0" cx="6" cy="966" r="1"/>
  <circle class="fil0 str0" cx="967" cy="966" r="1"/>
  <circle class="fil0 str0" cx="6" cy="7" r="1"/>
  <circle class="fil0 str0" cx="964" cy="6" r="1"/>
  <path class="fil1" d="M509 121c-194,0 -352,157 -352,350 0,13 0,25 2,37 12,0 23,8 29,18l25 0c-31,-173 98,-356 298,-354 257,1 393,304 226,497 -55,63 -109,84 -188,102l-82 0c-6,-2 -11,-3 -17,-4l0 50c20,3 39,5 59,5 195,0 353,-157 353,-351 0,-193 -158,-350 -353,-350zm27 371c17,22 20,16 46,56 9,14 34,55 26,70 -24,9 -82,-90 -90,-113 -6,-1 -44,0 -41,-36 2,-26 25,-31 47,-26 11,-15 21,-34 33,-49 19,-25 95,-127 119,-126 6,37 -137,187 -137,187 -1,4 3,13 3,19 -1,9 -4,11 -6,18zm-13 196l-21 0c-1,0 -2,0 -3,0l0 58c0,0 0,0 1,0l21 0c3,0 3,0 3,0l0 -58c1,0 0,0 -1,0zm-1 -490l-20 0c-2,0 -3,0 -4,0l0 58c0,0 1,0 2,0l21 0c2,0 3,0 3,0l0 -58c1,0 -1,0 -2,0zm204 263l0 21c0,1 0,2 1,3l57 0c0,0 0,-1 0,-2l0 -20c0,-3 0,-4 0,-4l-57 0c-1,-1 -1,1 -1,2zm-490 0l0 21c0,1 0,2 1,3l57 0c0,0 0,-1 0,-2l0 -20c0,-3 0,-4 0,-4l-57 0c-1,-1 -1,1 -1,2z"/>
  <path class="fil2" d="M302 559l-109 0 0 22c0,20 -16,36 -36,36l0 0c-20,0 -36,-16 -36,-36l0 -19c-24,6 -43,29 -43,56l0 222c0,33 27,59 59,59l223 0c32,0 58,-26 58,-59l0 -222c0,-28 -19,-51 -45,-57l0 20c0,20 -16,36 -36,36l0 0c-19,0 -35,-16 -35,-36l0 -22zm-191 102l276 0 0 181c0,14 -11,26 -26,26l-224 0c-14,0 -26,-12 -26,-26l0 -181z"/>
  <path class="fil2" d="M193 698c16,0 28,5 36,14 10,11 16,29 16,54 0,25 -6,44 -16,55 -8,9 -20,13 -36,13 -15,0 -27,-5 -37,-15 -9,-10 -14,-27 -14,-53 0,-25 5,-43 16,-54 8,-9 20,-14 35,-14zm0 22c-3,0 -6,1 -9,3 -3,1 -5,5 -7,10 -2,7 -3,18 -3,33 0,16 1,27 3,33 2,5 4,9 7,11 3,2 6,3 9,3 4,0 7,-1 10,-3 3,-2 5,-5 7,-10 2,-7 3,-18 3,-34 0,-15 -1,-26 -3,-32 -2,-6 -4,-10 -7,-11 -3,-2 -6,-3 -10,-3zm149 112l-30 0 0 -96c-11,8 -24,15 -39,19l0 -23c8,-2 16,-6 25,-12 10,-6 16,-14 19,-22l25 0 0 134z"/>
  <path class="fil2" d="M338 531l0 0c6,0 11,5 11,12l0 38c0,7 -5,12 -11,12l0 0c-7,0 -12,-5 -12,-12l0 -38c0,-7 5,-12 12,-12z"/>
  <rect class="fil2" x="146" y="531" width="22.8734" height="61.5563" rx="78" ry="114"/>
 </g>
</svg>
